<svg width="54" height="54" viewBox="0 0 54 54" fill="none" xmlns="http://www.w3.org/2000/svg">
<path d="M27 0C12.1124 0 0 12.1124 0 27C0 41.8876 12.1124 54 27 54C41.8887 54 54 41.8876 54 27C54 12.1124 41.8887 0 27 0ZM27 51.6522C13.4061 51.6522 2.34783 40.5939 2.34783 27C2.34783 13.4061 13.4061 2.34783 27 2.34783C40.5927 2.34783 51.6522 13.4061 51.6522 27C51.6522 40.5939 40.5927 51.6522 27 51.6522Z" fill="#BD1119"/>
<path d="M21.1304 22.3044C21.1304 20.3627 19.5503 18.7826 17.6087 18.7826C15.667 18.7826 14.0869 20.3627 14.0869 22.3044C14.0869 24.246 15.667 25.8261 17.6087 25.8261C19.5503 25.8261 21.1304 24.246 21.1304 22.3044ZM16.4347 22.3044C16.4347 21.6575 16.9618 21.1304 17.6087 21.1304C18.2555 21.1304 18.7826 21.6575 18.7826 22.3044C18.7826 22.9512 18.2555 23.4783 17.6087 23.4783C16.9618 23.4783 16.4347 22.9512 16.4347 22.3044Z" fill="#BD1119"/>
<path d="M36.3909 18.7826C34.4492 18.7826 32.8691 20.3627 32.8691 22.3044C32.8691 23.8328 33.8541 25.1241 35.217 25.6101V29.3478C35.217 29.9958 35.7417 30.5218 36.3909 30.5218C37.04 30.5218 37.5648 29.9958 37.5648 29.3478V25.6101C38.9277 25.1241 39.9126 23.8328 39.9126 22.3044C39.9126 20.3627 38.3325 18.7826 36.3909 18.7826ZM36.3909 23.4783C35.7429 23.4783 35.217 22.9512 35.217 22.3044C35.217 21.6575 35.7429 21.1304 36.3909 21.1304C37.0389 21.1304 37.5648 21.6575 37.5648 22.3044C37.5648 22.9512 37.0389 23.4783 36.3909 23.4783Z" fill="#BD1119"/>
<path d="M26.9995 32.8696C22.6231 32.8696 18.4534 34.7232 15.5597 37.9561C15.1277 38.4398 15.1688 39.1817 15.6513 39.6137C16.1349 40.0468 16.8768 40.0046 17.3088 39.5221C19.7576 36.7857 23.2899 35.2174 26.9995 35.2174C30.709 35.2174 34.2413 36.7857 36.6901 39.5221C36.9214 39.7815 37.243 39.913 37.5647 39.913C37.8429 39.913 38.1246 39.8144 38.3477 39.6137C38.8302 39.1817 38.8713 38.4398 38.4392 37.9561C35.5456 34.7243 31.377 32.8696 26.9995 32.8696Z" fill="#BD1119"/>
<path d="M39.265 11.8624L34.5693 9.51454C33.9906 9.22458 33.285 9.45937 32.9939 10.0393C32.7028 10.6204 32.9387 11.3247 33.5186 11.6158L38.2143 13.9637C38.3822 14.047 38.5618 14.0869 38.7379 14.0869C39.1687 14.0869 39.5831 13.8498 39.7897 13.4378C40.0796 12.8578 39.8449 12.1523 39.265 11.8624Z" fill="#BD1119"/>
<path d="M15.262 14.087C15.4381 14.087 15.6177 14.0471 15.7856 13.9637L20.4812 11.6159C21.0611 11.326 21.2959 10.6204 21.006 10.0405C20.716 9.46062 20.0128 9.22466 19.4306 9.51579L14.7349 11.8636C14.155 12.1536 13.9202 12.8591 14.2102 13.439C14.4168 13.8499 14.8312 14.087 15.262 14.087Z" fill="#BD1119"/>
</svg>
