<svg width="11" height="11" viewBox="0 0 11 11" fill="none" xmlns="http://www.w3.org/2000/svg">
<path d="M6.45125 5.50043L10.8027 1.1493C11.0658 0.886118 11.0658 0.460576 10.8027 0.199099C10.5397 -0.0640876 10.1145 -0.0640876 9.85321 0.199099L5.5 4.54851L1.14679 0.19739C0.883791 -0.0657966 0.458547 -0.0657966 0.197252 0.19739C-0.0657507 0.460576 -0.0657507 0.886118 0.197252 1.1476L4.54875 5.49872L0.197252 9.85155C-0.0657507 10.1147 -0.0657507 10.5403 0.197252 10.8018C0.328753 10.9333 0.501242 10.9983 0.672023 10.9983C0.844512 10.9983 1.01529 10.9333 1.14679 10.8018L5.5 6.45063L9.85321 10.8035C9.98471 10.9351 10.1555 11 10.328 11C10.5005 11 10.6712 10.9351 10.8027 10.8035C11.0658 10.5403 11.0658 10.1147 10.8027 9.85326L6.45125 5.50043Z" fill="#EC2C20"/>
</svg>
