<svg width="11" height="11" viewBox="0 0 11 11" fill="none" xmlns="http://www.w3.org/2000/svg">
<path d="M6.48424 5.50043L10.804 1.1493C11.0651 0.886118 11.0651 0.460576 10.804 0.199099C10.5429 -0.0640876 10.1208 -0.0640876 9.86136 0.199099L5.53993 4.54851L1.2185 0.19739C0.957418 -0.0657966 0.535278 -0.0657966 0.27589 0.19739C0.0148074 0.460576 0.0148074 0.886118 0.27589 1.1476L4.59563 5.49872L0.27589 9.85155C0.0148074 10.1147 0.0148074 10.5403 0.27589 10.8018C0.406432 10.9333 0.577661 10.9983 0.747196 10.9983C0.918426 10.9983 1.08796 10.9333 1.2185 10.8018L5.53993 6.45063L9.86136 10.8035C9.9919 10.9351 10.1614 11 10.3327 11C10.5039 11 10.6734 10.9351 10.804 10.8035C11.0651 10.5403 11.0651 10.1147 10.804 9.85326L6.48424 5.50043Z" fill="#EB5757"/>
</svg>
