<svg width="11" height="11" viewBox="0 0 11 11" fill="none" xmlns="http://www.w3.org/2000/svg">
<path d="M0.692542 10.9594L4.34786 9.41169C4.40684 9.38685 4.45962 9.35114 4.50618 9.30612L10.6713 3.14008C11.1075 2.70386 11.1106 1.99287 10.6744 1.55665L9.44358 0.325615C9.00742 -0.110603 8.29654 -0.107498 7.86038 0.32872L1.69523 6.49477C1.65022 6.53979 1.61452 6.59412 1.58969 6.65311L0.0406386 10.3074C-0.0462819 10.5123 0.014252 10.7188 0.146185 10.8523C0.278118 10.9858 0.486106 11.0463 0.692542 10.9594Z" fill="#6FCF97"/>
<path d="M2.83902 7.01922L6.85824 3L8 4.14176L3.98078 8.16098L2 9L2.83902 7.01922Z" fill="white"/>
</svg>
