<svg width="13" height="11" viewBox="0 0 13 11" fill="none" xmlns="http://www.w3.org/2000/svg">
<path d="M0.806911 10.9594L4.99597 9.41169C5.06356 9.38685 5.12404 9.35114 5.17741 9.30612L12.2428 3.14008C12.7426 2.70386 12.7462 1.99287 12.2463 1.55665L10.8357 0.325615C10.3359 -0.110603 9.52122 -0.107498 9.02138 0.32872L1.95601 6.49477C1.90443 6.53979 1.86351 6.59412 1.83505 6.65311L0.0598172 10.3074C-0.0397953 10.5123 0.0295777 10.7188 0.180775 10.8523C0.331973 10.9858 0.570331 11.0463 0.806911 10.9594Z" fill="#27AE60"/>
<path d="M3.26683 7.01922L7.87293 3L9.1814 4.14176L4.57531 8.16098L2.3053 9L3.26683 7.01922Z" fill="white"/>
</svg>
