<svg width="15" height="16" viewBox="0 0 15 16" fill="none" xmlns="http://www.w3.org/2000/svg">
<path d="M12.8157 14.3555V6.12891H2.33911V14.3555H12.8157ZM10.5657 0.855469H12.0774V2.36719H12.8157C13.2141 2.36719 13.5657 2.51953 13.8704 2.82422C14.1751 3.12891 14.3274 3.48047 14.3274 3.87891V14.3555C14.3274 14.7539 14.1751 15.1055 13.8704 15.4102C13.5657 15.7148 13.2141 15.8672 12.8157 15.8672H2.33911C1.91724 15.8672 1.55396 15.7266 1.24927 15.4453C0.96802 15.1406 0.827395 14.7773 0.827395 14.3555V3.87891C0.827395 3.48047 0.96802 3.12891 1.24927 2.82422C1.55396 2.51953 1.91724 2.36719 2.33911 2.36719H3.0774V0.855469H4.58911V2.36719H10.5657V0.855469ZM11.3391 9.11719V12.8789H7.5774V9.11719H11.3391Z" fill="#57C3A7"/>
</svg>
