<svg width="54" height="54" viewBox="0 0 54 54" fill="none" xmlns="http://www.w3.org/2000/svg">
<path d="M17.6077 21.1304C19.5493 21.1304 21.1294 19.5503 21.1294 17.6087C21.1294 15.667 19.5493 14.0869 17.6077 14.0869C15.666 14.0869 14.0859 15.667 14.0859 17.6087C14.0859 19.5503 15.666 21.1304 17.6077 21.1304ZM17.6077 16.4348C18.2557 16.4348 18.7816 16.9619 18.7816 17.6087C18.7816 18.2555 18.2557 18.7826 17.6077 18.7826C16.9597 18.7826 16.4338 18.2555 16.4338 17.6087C16.4338 16.9619 16.9597 16.4348 17.6077 16.4348Z" fill="#BD1119"/>
<path d="M36.3899 14.0869C34.4483 14.0869 32.8682 15.667 32.8682 17.6087C32.8682 19.5503 34.4483 21.1304 36.3899 21.1304C38.3316 21.1304 39.9116 19.5503 39.9116 17.6087C39.9116 15.667 38.3316 14.0869 36.3899 14.0869ZM36.3899 18.7826C35.7419 18.7826 35.216 18.2555 35.216 17.6087C35.216 16.9619 35.7419 16.4348 36.3899 16.4348C37.0379 16.4348 37.5638 16.9619 37.5638 17.6087C37.5638 18.2555 37.0379 18.7826 36.3899 18.7826Z" fill="#BD1119"/>
<path d="M27 0C12.1113 0 0 12.1124 0 27C0 41.8876 12.1113 54 27 54C41.8887 54 54 41.8876 54 27C54 12.1124 41.8887 0 27 0ZM27 51.6522C13.4073 51.6522 2.34783 40.5939 2.34783 27C2.34783 13.4061 13.4073 2.34783 27 2.34783C40.5927 2.34783 51.6522 13.4061 51.6522 27C51.6522 40.5939 40.5927 51.6522 27 51.6522Z" fill="#BD1119"/>
<path d="M38.7381 28.1739C39.3873 28.1739 39.912 27.648 39.912 27C39.912 26.352 39.3873 25.8261 38.7381 25.8261C36.2001 25.8261 34.0542 27.4555 33.2372 29.7153C31.9341 28.9827 29.8715 28.1739 26.999 28.1739C24.1264 28.1739 22.0639 28.9827 20.7608 29.7153C19.9438 27.4555 17.7979 25.8261 15.2599 25.8261C14.6107 25.8261 14.0859 26.352 14.0859 27C14.0859 27.648 14.6107 28.1739 15.2599 28.1739C17.2015 28.1739 18.7816 29.754 18.7816 31.6956C18.7816 33.6373 17.2015 35.2174 15.2599 35.2174C14.6107 35.2174 14.0859 35.7433 14.0859 36.3913C14.0859 37.0393 14.6107 37.5652 15.2599 37.5652C18.2921 37.5652 20.7655 35.2456 21.0695 32.2932C21.7481 31.7649 23.6909 30.5217 26.999 30.5217C30.3129 30.5217 32.2569 31.7696 32.9284 32.292C33.2325 35.2456 35.7059 37.5652 38.7381 37.5652C39.3873 37.5652 39.912 37.0393 39.912 36.3913C39.912 35.7433 39.3873 35.2174 38.7381 35.2174C36.7965 35.2174 35.2164 33.6373 35.2164 31.6956C35.2164 29.754 36.7965 28.1739 38.7381 28.1739Z" fill="#BD1119"/>
</svg>
