<svg width="25" height="21" viewBox="0 0 25 21" fill="none" xmlns="http://www.w3.org/2000/svg">
<path d="M12.5 20.8334C12.0625 20.8334 11.6687 20.5584 11.5198 20.1417L7.40204 8.6136L6.20931 12.7855C6.08221 13.2334 5.67284 13.5417 5.20829 13.5417H1.04165C0.46665 13.5417 0 13.0761 0 12.5001C0 11.924 0.46665 11.4584 1.04165 11.4584H4.42289L6.29061 4.92196C6.41459 4.48656 6.80521 4.18133 7.25834 4.16674C7.71458 4.16151 8.12083 4.43133 8.27293 4.85736L12.2667 16.0407L15.65 0.815716C15.7542 0.347992 16.1635 0.011567 16.6427 9.23685e-05C17.1323 -0.00615762 17.5459 0.305316 17.6719 0.766741L20.5875 11.4584H23.9584C24.5344 11.4584 25 11.924 25 12.5C25 13.076 24.5344 13.5417 23.9584 13.5417H19.7917C19.3219 13.5417 18.9105 13.2271 18.7865 12.7739L16.7688 5.37918L13.5156 20.0177C13.4146 20.4719 13.0271 20.8031 12.5635 20.8313C12.5427 20.8323 12.5219 20.8334 12.5 20.8334Z" fill="#57C3A7"/>
</svg>
