<svg width="54" height="54" viewBox="0 0 54 54" fill="none" xmlns="http://www.w3.org/2000/svg">
<path d="M27 0C12.1124 0 0 12.1124 0 27C0 41.8876 12.1124 54 27 54C41.8876 54 54 41.8876 54 27C54 12.1124 41.8876 0 27 0ZM27 51.6522C13.4061 51.6522 2.34783 40.5939 2.34783 27C2.34783 13.4061 13.4061 2.34783 27 2.34783C40.5939 2.34783 51.6522 13.4061 51.6522 27C51.6522 40.5939 40.5939 51.6522 27 51.6522Z" fill="#FFC542"/>
<path d="M17.6087 25.8261C19.5503 25.8261 21.1304 24.246 21.1304 22.3043C21.1304 20.3627 19.5503 18.7826 17.6087 18.7826C15.667 18.7826 14.0869 20.3627 14.0869 22.3043C14.0869 24.246 15.667 25.8261 17.6087 25.8261ZM17.6087 21.1304C18.2555 21.1304 18.7826 21.6575 18.7826 22.3043C18.7826 22.9512 18.2555 23.4782 17.6087 23.4782C16.9618 23.4782 16.4347 22.9512 16.4347 22.3043C16.4347 21.6575 16.9618 21.1304 17.6087 21.1304Z" fill="#FFC542"/>
<path d="M36.3909 18.7826C34.4492 18.7826 32.8691 20.3627 32.8691 22.3043C32.8691 24.246 34.4492 25.8261 36.3909 25.8261C38.3325 25.8261 39.9126 24.246 39.9126 22.3043C39.9126 20.3627 38.3325 18.7826 36.3909 18.7826ZM36.3909 23.4782C35.744 23.4782 35.217 22.9512 35.217 22.3043C35.217 21.6575 35.744 21.1304 36.3909 21.1304C37.0377 21.1304 37.5648 21.6575 37.5648 22.3043C37.5648 22.9512 37.0377 23.4782 36.3909 23.4782Z" fill="#FFC542"/>
<path d="M38.7391 32.8696H15.2608C14.6128 32.8696 14.0869 33.3955 14.0869 34.0435C14.0869 34.6915 14.6128 35.2174 15.2608 35.2174H38.7391C39.3871 35.2174 39.913 34.6915 39.913 34.0435C39.913 33.3955 39.3871 32.8696 38.7391 32.8696Z" fill="#FFC542"/>
</svg>
