<svg width="24" height="27" viewBox="0 0 24 27" fill="none" xmlns="http://www.w3.org/2000/svg">
<path fill-rule="evenodd" clip-rule="evenodd" d="M22.8467 19.4615L21.5104 18.1252C21.3896 18.0056 21.4057 17.4524 21.4057 17.2822V11.5322C21.4057 7.63948 18.7423 4.22398 15.0715 3.00038V2.89343C15.0715 1.34553 13.7617 0.0322266 12.2057 0.0322266C10.6544 0.0322266 9.33879 1.34553 9.33879 2.89343V3.00038C5.66799 4.22398 3.00574 7.63948 3.00574 11.5322V17.2822C3.00574 17.4524 3.02069 18.0056 2.90109 18.1252L1.56479 19.4615C1.15079 19.8755 0.70459 20.6437 0.70459 21.3544C0.70459 22.2514 1.51764 22.9816 2.51699 22.9816H7.54939C8.02204 24.9815 9.82754 26.4753 11.9757 26.4753C14.1239 26.4753 16.3319 25.0321 16.8057 23.0322L21.8945 22.9816C22.8938 22.9816 23.7057 22.2514 23.7057 21.3544C23.7057 20.646 23.2607 19.8766 22.8467 19.4615ZM11.9758 24.4536C10.958 24.4536 10.0794 23.8487 9.68153 22.9816H14.2689C13.871 23.8487 12.9924 24.4536 11.9758 24.4536ZM15.6558 20.7322C15.4971 20.6931 15.8145 20.6931 15.6558 20.7322H8.75582C8.59712 20.6931 8.91452 20.6931 8.75582 20.7322H3.00582C3.05642 20.5344 2.98397 20.7529 3.00582 20.7322L4.33637 19.5523C4.83432 19.0555 5.30582 17.986 5.30582 17.2822V11.5322C5.30582 8.25703 7.36317 5.51543 10.5889 4.74378C11.0443 4.63453 11.3652 4.22858 11.3652 3.76053V2.89343C11.3652 2.47253 11.7838 2.33223 12.2058 2.33223C12.6394 2.33223 13.0442 2.46448 13.0442 2.89343V3.76053C13.0442 4.22858 13.3662 4.63453 13.8216 4.74378C17.0473 5.51543 19.1058 8.25703 19.1058 11.5322V17.2822C19.1058 17.986 19.5773 19.0555 20.0753 19.5535L21.4104 20.8875C21.4323 20.9093 21.3851 20.7058 21.4058 20.7322H15.6558Z" fill="white"/>
</svg>
