<svg width="24" height="5" viewBox="0 0 24 5" fill="none" xmlns="http://www.w3.org/2000/svg">
<path fill-rule="evenodd" clip-rule="evenodd" d="M21.1431 5C19.7479 5 18.6157 3.881 18.6157 2.5C18.6157 1.119 19.7479 0 21.1431 0C22.5394 0 23.6705 1.119 23.6705 2.5C23.6705 3.881 22.5394 5 21.1431 5ZM12.1918 5C10.805 5 9.68109 3.881 9.68109 2.5C9.68109 1.119 10.805 0 12.1918 0C13.5786 0 14.7025 1.119 14.7025 2.5C14.7025 3.881 13.5786 5 12.1918 5ZM3.24045 5C1.84422 5 0.713043 3.881 0.713043 2.5C0.713043 1.119 1.84422 0 3.24045 0C4.63564 0 5.76786 1.119 5.76786 2.5C5.76786 3.881 4.63564 5 3.24045 5Z" fill="#D0D7DD" fill-opacity="0.72727"/>
</svg>
