<svg width="54" height="54" viewBox="0 0 54 54" fill="none" xmlns="http://www.w3.org/2000/svg">
<path d="M26.9995 32.8696C22.6231 32.8696 18.4534 34.7232 15.5597 37.9561C15.1277 38.4398 15.1688 39.1817 15.6513 39.6137C16.1349 40.0468 16.8756 40.0046 17.3088 39.5221C19.7576 36.7857 23.2899 35.2174 26.9995 35.2174C30.7102 35.2174 34.2413 36.7857 36.6901 39.5221C36.9214 39.7815 37.243 39.913 37.5647 39.913C37.8429 39.913 38.1235 39.8144 38.3477 39.6137C38.8313 39.1817 38.8712 38.4398 38.4392 37.9561C35.5467 34.7243 31.377 32.8696 26.9995 32.8696Z" fill="#FFC542"/>
<path d="M27 0C12.1124 0 0 12.1124 0 27C0 41.8876 12.1124 54 27 54C41.8876 54 54 41.8876 54 27C54 12.1124 41.8876 0 27 0ZM27 51.6522C13.4061 51.6522 2.34783 40.5939 2.34783 27C2.34783 13.4061 13.4061 2.34783 27 2.34783C40.5939 2.34783 51.6522 13.4061 51.6522 27C51.6522 40.5939 40.5939 51.6522 27 51.6522Z" fill="#FFC542"/>
<path d="M23.4784 22.3044C23.4784 21.8595 23.2272 21.4533 22.8292 21.2537L13.4379 16.5581C12.8557 16.2681 12.1525 16.5041 11.8625 17.0828C11.5726 17.6627 11.8074 18.3682 12.3873 18.6582L19.6796 22.3044L12.3884 25.9494C11.8085 26.2393 11.5738 26.9448 11.8637 27.5248C12.0691 27.9368 12.4835 28.1739 12.9144 28.1739C13.0904 28.1739 13.2701 28.134 13.4379 28.0507L22.8292 23.355C23.2272 23.1555 23.4784 22.7493 23.4784 22.3044Z" fill="#FFC542"/>
<path d="M41.6126 25.9494L34.3203 22.3044L41.6115 18.6594C42.1914 18.3683 42.4273 17.6639 42.1374 17.084C41.8474 16.5041 41.1431 16.2693 40.562 16.5592L31.1707 21.2549C30.7727 21.4533 30.5215 21.8595 30.5215 22.3044C30.5215 22.7493 30.7727 23.1555 31.1707 23.355L40.562 28.0507C40.7298 28.134 40.9095 28.1739 41.0855 28.1739C41.5164 28.1739 41.9308 27.9368 42.1374 27.5248C42.4273 26.9449 42.1925 26.2393 41.6126 25.9494Z" fill="#FFC542"/>
</svg>
