<svg width="18" height="24" viewBox="0 0 18 24" fill="none" xmlns="http://www.w3.org/2000/svg">
<path fill-rule="evenodd" clip-rule="evenodd" d="M15 0C16.657 0 18 1.34297 18 3C18 4.36406 17.0906 5.51484 15.8438 5.88047V9.55313L15.8508 9.56016L9.84375 15.5672V18.1195C11.0906 18.4852 12 19.6359 12 21C12 22.657 10.657 24 9 24C7.34297 24 6 22.657 6 21C6 19.6359 6.90938 18.4852 8.15625 18.1195V15.5789L2.1375 9.56016L2.14453 9.55313V5.87578C0.904688 5.50781 0 4.35938 0 3C0 1.34297 1.34297 0 3 0C4.65703 0 6 1.34297 6 3C6 4.36875 5.08359 5.52187 3.83203 5.88281V8.86875L8.99297 14.0297L14.1562 8.86875V5.88047C12.9094 5.51484 12 4.36406 12 3C12 1.34297 13.343 0 15 0ZM3 1.6875C2.27578 1.6875 1.6875 2.27578 1.6875 3C1.6875 3.72422 2.27578 4.3125 3 4.3125C3.72422 4.3125 4.3125 3.72422 4.3125 3C4.3125 2.27578 3.72422 1.6875 3 1.6875ZM10.3125 21C10.3125 21.7242 9.72422 22.3125 9 22.3125C8.27578 22.3125 7.6875 21.7242 7.6875 21C7.6875 20.2758 8.27578 19.6875 9 19.6875C9.72422 19.6875 10.3125 20.2758 10.3125 21ZM13.6875 3C13.6875 3.72422 14.2758 4.3125 15 4.3125C15.7242 4.3125 16.3125 3.72422 16.3125 3C16.3125 2.27578 15.7242 1.6875 15 1.6875C14.2758 1.6875 13.6875 2.27578 13.6875 3Z" fill="#57C3A7"/>
</svg>
