<svg width="11" height="11" viewBox="0 0 11 11" fill="none" xmlns="http://www.w3.org/2000/svg">
<path d="M10.4919 4.97585H5.99845V0.516971C5.99845 0.231201 5.77131 0 5.49055 0C5.2098 0 4.98266 0.231201 4.98266 0.516971V4.97585H0.587972C0.307219 4.97585 0.0800781 5.20705 0.0800781 5.49282C0.0800781 5.77859 0.307219 6.00979 0.587972 6.00979H4.98266V10.483C4.98266 10.7688 5.2098 11 5.49055 11C5.77131 11 5.99845 10.7688 5.99845 10.483V6.00979H10.4919C10.7726 6.00979 10.9998 5.77859 10.9998 5.49282C10.9998 5.20705 10.7726 4.97585 10.4919 4.97585Z" fill="#27AE60"/>
</svg>
