<svg width="54" height="54" viewBox="0 0 54 54" fill="none" xmlns="http://www.w3.org/2000/svg">
<path d="M27 0C12.1113 0 0 12.1124 0 27C0 41.8876 12.1113 54 27 54C41.8887 54 54 41.8876 54 27C54 12.1124 41.8887 0 27 0ZM27 51.6522C13.4073 51.6522 2.34783 40.5939 2.34783 27C2.34783 13.4061 13.4073 2.34783 27 2.34783C40.5927 2.34783 51.6522 13.4061 51.6522 27C51.6522 40.5939 40.5927 51.6522 27 51.6522Z" fill="#FFC542"/>
<path d="M21.4732 27.83C21.7022 28.0589 22.0027 28.1739 22.3032 28.1739C22.6037 28.1739 22.9042 28.0589 23.1332 27.83C23.5922 27.371 23.5922 26.6291 23.1332 26.1701L19.2663 22.3044L23.132 18.4398C23.591 17.9808 23.591 17.2389 23.132 16.7799C22.673 16.3209 21.9311 16.3209 21.4721 16.7799L17.6064 20.6456L13.7407 16.7799C13.2817 16.3209 12.5398 16.3209 12.0808 16.7799C11.6218 17.2389 11.6218 17.9808 12.0808 18.4398L15.9465 22.3044L12.0796 26.1701C11.6206 26.6291 11.6206 27.371 12.0796 27.83C12.3085 28.0589 12.609 28.1739 12.9096 28.1739C13.2101 28.1739 13.5106 28.0589 13.7395 27.83L17.6064 23.9631L21.4732 27.83Z" fill="#FFC542"/>
<path d="M38.0514 22.3044L41.9171 18.4398C42.3761 17.9808 42.3761 17.2389 41.9171 16.7799C41.4581 16.3209 40.7162 16.3209 40.2572 16.7799L36.3915 20.6456L32.5258 16.7799C32.0668 16.3209 31.3249 16.3209 30.8659 16.7799C30.4069 17.2389 30.4069 17.9808 30.8659 18.4398L34.7316 22.3044L30.8648 26.1701C30.4058 26.6291 30.4058 27.371 30.8648 27.83C31.0937 28.0589 31.3942 28.1739 31.6947 28.1739C31.9952 28.1739 32.2958 28.0589 32.5247 27.83L36.3915 23.9631L40.2584 27.83C40.4873 28.0589 40.7878 28.1739 41.0884 28.1739C41.3889 28.1739 41.6894 28.0589 41.9183 27.83C42.3773 27.371 42.3773 26.6291 41.9183 26.1701L38.0514 22.3044Z" fill="#FFC542"/>
<path d="M36.3901 35.2174H17.6075C16.9583 35.2174 16.4336 35.7433 16.4336 36.3913C16.4336 37.0393 16.9583 37.5652 17.6075 37.5652H36.3901C37.0393 37.5652 37.564 37.0393 37.564 36.3913C37.564 35.7433 37.0393 35.2174 36.3901 35.2174Z" fill="#FFC542"/>
</svg>
