<svg width="72" height="72" viewBox="0 0 72 72" fill="none" xmlns="http://www.w3.org/2000/svg">
<path d="M51.1308 44.2254C50.4859 43.6478 49.4952 43.7042 48.9207 44.3475C45.6557 47.996 40.9475 50.0871 35.9998 50.0871C31.0538 50.0871 26.344 47.996 23.079 44.3475C22.5014 43.7042 21.5138 43.6478 20.8689 44.2254C20.224 44.8014 20.1708 45.7906 20.7468 46.4355C24.6051 50.7461 30.1647 53.2176 35.9998 53.2176C41.8365 53.2176 47.3962 50.7445 51.2529 46.4355C51.8289 45.7906 51.7741 44.8014 51.1308 44.2254Z" fill="#6FCF97"/>
<path d="M36 0C16.1499 0 0 16.1499 0 36C0 55.8501 16.1499 72 36 72C55.8501 72 72 55.8501 72 36C72 16.1499 55.8501 0 36 0ZM36 68.8696C17.8748 68.8696 3.13043 54.1252 3.13043 36C3.13043 17.8748 17.8748 3.13043 36 3.13043C54.1252 3.13043 68.8696 17.8748 68.8696 36C68.8696 54.1252 54.1252 68.8696 36 68.8696Z" fill="#6FCF97"/>
<path d="M48.5219 25.0435C44.2066 25.0435 40.6958 28.5542 40.6958 32.8695C40.6958 33.7335 41.397 34.4348 42.261 34.4348C43.125 34.4348 43.8262 33.7335 43.8262 32.8695C43.8262 30.2807 45.933 28.1739 48.5219 28.1739C51.1108 28.1739 53.2175 30.2807 53.2175 32.8695C53.2175 33.7335 53.9188 34.4348 54.7828 34.4348C55.6468 34.4348 56.348 33.7335 56.348 32.8695C56.348 28.5542 52.8372 25.0435 48.5219 25.0435Z" fill="#6FCF97"/>
<path d="M28.1741 32.8695C28.1741 33.7335 28.8753 34.4348 29.7393 34.4348C30.6033 34.4348 31.3045 33.7335 31.3045 32.8695C31.3045 28.5542 27.7937 25.0435 23.4784 25.0435C19.1631 25.0435 15.6523 28.5542 15.6523 32.8695C15.6523 33.7335 16.3536 34.4348 17.2176 34.4348C18.0816 34.4348 18.7828 33.7335 18.7828 32.8695C18.7828 30.2807 20.8896 28.1739 23.4784 28.1739C26.0673 28.1739 28.1741 30.2807 28.1741 32.8695Z" fill="#6FCF97"/>
</svg>
