<svg width="20" height="29" viewBox="0 0 20 29" fill="none" xmlns="http://www.w3.org/2000/svg">
<path d="M9.92981 28.1528C7.29417 28.1528 4.81589 27.1315 2.94406 25.2768C2.93307 25.2658 2.92086 25.2536 2.90992 25.2438C-0.310225 22.0237 -0.927662 17.0464 1.40781 13.1393L8.8743 0.596707C9.09518 0.226982 9.49421 0 9.9237 0C10.3532 0 10.751 0.225717 10.9718 0.595443L18.4517 13.1393C20.786 17.0464 20.1686 22.0237 16.9496 25.2426C15.0778 27.1169 12.5874 28.1504 9.93707 28.1528C9.9347 28.1528 9.93223 28.1528 9.92981 28.1528ZM4.61575 23.4965C4.62553 23.5063 4.63648 23.516 4.64505 23.5245C6.05682 24.9351 7.93475 25.7124 9.93102 25.7124C9.93223 25.7124 9.9347 25.7124 9.93591 25.7124C11.9346 25.7112 13.8125 24.9315 15.2231 23.5172C17.6513 21.0902 18.1174 17.3368 16.3579 14.39L9.92612 3.60449L3.50662 14.3888C1.74828 17.3283 2.20582 21.0682 4.61575 23.4965Z" fill="#57C3A7"/>
<path d="M13.3892 18.4736H6.06785C5.39427 18.4736 4.84766 17.9281 4.84766 17.2534C4.84766 16.5787 5.39433 16.0332 6.06785 16.0332H13.3891C14.0639 16.0332 14.6093 16.5787 14.6093 17.2534C14.6093 17.9281 14.0639 18.4736 13.3892 18.4736Z" fill="#57C3A7"/>
<path d="M9.72849 22.1348C9.05492 22.1348 8.5083 21.5893 8.5083 20.9146V13.5932C8.5083 12.9197 9.05497 12.373 9.72849 12.373C10.4021 12.373 10.9487 12.9197 10.9487 13.5932V20.9145C10.9487 21.5881 10.4033 22.1348 9.72849 22.1348Z" fill="#57C3A7"/>
</svg>
